<mxfile host="65bd71144e">
    <diagram id="fckZmUxblsygGUYCwZBm" name="Page-1">
        <mxGraphModel dx="662" dy="634" grid="1" gridSize="10" guides="1" tooltips="1" connect="1" arrows="1" fold="1" page="1" pageScale="1" pageWidth="850" pageHeight="1100" math="0" shadow="0">
            <root>
                <mxCell id="0"/>
                <mxCell id="1" parent="0"/>
                <mxCell id="2" value="" style="shape=stencil(lVnJUhtBDP0aX7vUrV7PhPwHVZjgCgEKyPb3UcfV9rTEvLFvLNKM1qcnzY5v3h/vXve7QO8fby/f978P9x+PO/6yC+Hw/Lh/O3zITzu+3fHNw8vb/tvby8/n++Pvr3ddsv/04+VXf8Kfo553hbpSoL/HP5DL8f8fvh7Fnw7PC/HgfJvEvasJiZcyibNrZV2cXeBJPA/rVsSjn8Sr44bE0yzuyTHw1cqLO+EKc3xyXKG3cZYX+zOSpzzJ9+CD8ARX51wFsQfKlzTLN0cgnkGXDrPzuBjm7HIZEVuzf/Y3SrECeYlPneWzCzBfPMcnkavw+cr+JPEE/kadr0yOGMnzHP8cXQLdIv9Vz5d8AX+jy3N8ilQgqLfoylyfpYyKvUy+kmvw+XmOf42w/kU+zPLF8TXxqW3DnjTHvwnawXimOZ6NYf3E0a0n+QzrIWt8EPkM7KkuJy2P/O3wNwe0Fdgwgn8ctUICHeDF5aIVKkiZL64pkyrMgUBgNAoBvKFjYNEKDLIgIJjjNW/gqOeGKBCIEjdXq45SBoMjpoELy8QBZE9eQ0svJeBDEmTOWsGjWuUxGk8KYiQYHoJVjbUCynRJepy1E+B83g5+oNtCIQKTqrQjaQVEKBqNvF6qwKZaxSSQB4lJNT4k4HTvL2NSBsXX2uAoF4ZVFDTsiQJyurlifGgg06LQVB6kNACwdoWqFdBk9kQm1cnljVckrYCQTBSqqu88+MmaQi5aIeDMxaoVEJ8VhWDesKFA1iTkdDWZyzhz1RWTuQaQrCsYnIH1XTVr67WByrWaMZ0gre1OqzdIfeOweq8VEJHvPWoUtnrUKgAq0HvUmrRR3llHibBJzSigWvq8RxOYQf0VRSsU3HJ68GbIoHuYTFOjwdsTYTgc4zdoipUhlF2vUEzLZVzfySBZgryyTzmTuHrdHE2QSddTmi5V8GPzXfqA2YbGe4kScLrYas2QG3fGpPhMgeuAcDJdSwXuh8L6okpchSQuJrNBVEgT2U5FwTZ08jA72ZlOrLJvowAvTmnskAuFht7g9RlggTxrS4rGvgbPWrIGqTPYGXnWFi1ftQLiWLLK6ZHS4Fishoi2wfg/L2/TcA3eDk7DYFFJaMSxvj1JbTd4i9EBwszEyjMcDWx2hzCuOWu3pPn5tUEew5q79VsGaE3Wt4l+K4HyeUajjVsMD/a7vPXAeCosKjw4ypq/c/3I/udhfMJsTz5di1ZuhepukAnCddBLTEpwNwz6Mp0Icjw/qndxi0Tx8Rrm+q0TQYomeP2WCupBRsGcr36rhfZHewuGz09z/AUBApivXtdn/xCB5Wd7fHUBAaI+2viNjXAcK5a3fvh81b+CwGgvNweYuuGu+sxSIEUjvfRHeCgkXTxhMLwVcXVX9/CyQ3pUeIhUhjd5CLSkBwvBuULjpnQWR6SMxsZ9FkcLMmlUk9eBpiUNsgTvgqR59wYtsZEhiDjGVfSxx3BJGoh4WT8R/NRz5VfITXH54fzB8+Hw9HT8Xrr8v/5AKn86flzl238=);lineShape=1;" vertex="1" parent="1">
                    <mxGeometry x="165.02770461752084" y="108.03096544906828" width="221.2532022555697" height="176.56623878581468" as="geometry"/>
                </mxCell>
                <mxCell id="3" value="" style="shape=stencil(lVbLbttADPwaXYkld7mPc5r+R4A4tVDXDhynbf4+VIWVTVaikZssc8TXcMghPrztn153A4W3y/n0c/dnfL7sh/htIBqP+915vMjTEB+H+PByOu9+nE/vx+f59+vTZDk9/Tr9nr7wd8YRQykTisLH/CZCiv9efJ/tD+Px1r5CJWXPwGnbPiXAoOwRodZtQM5QNIAQGm0DaoaadAbiIW8DMAQI2kUqUJwkaoOQFUCijG0bUAiiBpQC5GSdIlBUgMbQnCRihaSzbhWYHQDZRrfmNoKy7fQE8KiBQMGG5FUJM3CwSRen1ShVMiFRp9c6AC2ZaoHmAQhC04AI7FQJE0Rd1tKAiwOonQgLIAM5VZoGUiddkps0NSBDvqVu69RgwGIBxeFSCn3mFwBDdjyIChgulQrZk41iPVTqZFkH1C5bC0CExCmreIi60w37lG/lwGZEJSun01Il1H1oBSo6fUid/TcTxx41ak9xEdertq0jCFqzLoITE8q8mKylro4KyECgAURfBdCGJHIbHW5MQ80awG7SIhsJNSD0nbElTJauvnx/GSB0NWrM2V1asnBQDwQjsDdy0lcNSNTHfFPvdR9kj3qNy5C1PQVXKiM0HZBIoSvedq8jd6as2ge7TaTvnhL/dwVguPN9s9PvbDdgbc59kjaqY9RFJNjjg5VsdGOXidK5Bn+IqTu/2gdnIQj/Y7L2XmuXS+Jq77VKimHIjO7B9uWr9q69PFxP6JfxcJgv8Nv/7cktr+ZzPT5+Ag==);lineShape=1;" vertex="1" parent="1">
                    <mxGeometry x="378.79444061899176" y="265.30510584750016" width="14.851636979197337" height="20.389816093822446" as="geometry"/>
                </mxCell>
                <mxCell id="4" value="" style="shape=stencil(7VnLbtswEPwaXxckl89z2v5HgDiN0TQOkvT19x3VoCKurDFyKVA0N0fZEZf7miG106vnu+vH/S6455en45f9j8PNy91OP+xCODzc7Z8OL/i10487vbo9Pu0/Px2/Pdyc/n68niynX1+P36c3/DzhnKQwgYL7dXoQm8T458mnk/394WFhnyXWwT408WXb3kdJbQD4IJq3AfAo5tEj0Ubss5TRIyfqtu1VxVl7x+ybuDTYZ8nE/xgk6hghL5oIQHsAOwBLNhJSrBDGHaQqlYQoertCSVJJkiOqYgTUwl1y/d8d0JRmAYBiAEm8UkB0IwCJJ5tGEOtYeK2KrxQQxsJreOIJoEpKFlDJHrRI9WMvuAvFV2yxYonCfMq9WRa7bmzXqUdxBhRaGwCot4lQtkKUZlaItIMAqGMHtcBTDYBJhKMNgcyZPVQ0IWuIZPOQ4RLZQ3I2DzFLILWRkp2TGKxsbKTVXPJJMunR7PvcfR2snmwB9mawYsvEIURERyrxkhmTBGnjBjBESC9klazGPjH/wRvWPjP/V3WKscns1xkTx/zJtob4iIR9HOODMuf2ecwvXkCaAPbFNEEfgFv2lskxvMgsAsAWxIWKKLYi1EskJV1cb5E5ROBGkrOCkh/3kLTzynlAs3uYwkz6GNPT0H+Z6+o8oFraATkzgQQGcCMTlkwVEgCGzQtncwDaWBkIQyObXtDYXEtoBr6EocLKpxEAaiRJuhTXMmYOGkaZSwhKHAGVkgIA3lkAm/EgytCsS6whoImyWQE9TVpuElHOhjWzKMVO9ovEUZdWXFsdHTOTS2MeSu0Kf3PTo0uob8a1k/4wAIxmokimxCULcIGXRrMAWq3VylsAmAxDeRt5ix690NRGJKFHA0ncuR7lB5NpDBiA9tPf5qAxxZQksrhWO/BR33Qy1a7IlwcTlojStemyR3ltvA0w1ZqpvtLb/DzLNcmGUlQKGRt51aOxcaXkpY4r6AXpALlspJ6nHPSuJf+ClmT271rykpZUmzGEtJI+xnnKcO3r4fs8IPbj1qwl+bkWXWuKrgRJ7JIkrhRJkcLvbf7Pa5gV4P0a5l+4homd9xZ6gWZupYeLSmKAbAEJ5EwUCTJt7lany1OWh2JVVSj9uHUeECyb+0jFJ97XzOgDe5Him7jVADK/o8dUMXsIdApgWBdzUIekJi4lK9tSpeM+9jE328/n8A17b+jK9fY4nwRJ3to3FlIrqCBoPBkYc/gW76+k13xn14V9IO93tiQS/wrj+jXKog0qiaez8Uz89nJ1tAAVMmabyX62n2t2yx9zbePpwH7rV63L9vjx+gnt9nB/f/oCt/y//eSGR6fPdfrxNw==);lineShape=1;" vertex="1" parent="1">
                    <mxGeometry x="382.78328385248824" y="297.24821762291344" width="25.00770581824463" height="9.774744035093136" as="geometry"/>
                </mxCell>
                <mxCell id="5" value="" style="shape=stencil(7VjLUhtBDPwaX1UzmveZkP+gChNccTBlyOvv0xvXLDtaux1uOXAzy/ZqpJZa0mzCzcvj3fN2o+7l9Xj4uv25u3993IRPG9Xd0+P2uHvFr0243YSbh8Nx++V4+P50f/r7+W56c/r17fBj+sKvE84XcX5Cqft9ehKchPr3yecTYL97WgA0SK0DIDrJ8TIgqKTRQooSlACq5BGQgxR/GRCjtDYASpBIjpS8eDcAqkosBJAljBZqo0dKTfJooUVJ4TIgI4hlBMAmB9Q4AkBl5hacBRTCNHxoaQRUiYkA6grQxDEeSs+cBSCR1AAPhjgAKrMQJeoA8M6JcwShUlYmGguT7z4uz0QsRPi4ArB0jVW0WCIaISKWnjoLQGAWshTDHKghyRRKD+JcEKCmEdmoUscjlSSBWFDXs3mhAsyC9123Zp1x4kkyRdGRBjilxICTOMqSJkqbsyHykADyfYR0ZDnT1/H9Np7HSybvB9TiyMCVQqjikvm+kjqY+Bz9hSyT79cqfoy/dxQAQfTmQPgEkchFqS8oq0S2USamV4VI66BAVMczxVn5z6twlTJ2kilLSevJ2co2AEyFM7qrXwFYJ1Hx2QIcySR0klCs05EA0EkM1ZC0zPoteDBDBnoV8QGAYo4ESSPETQ3aAJAajAdkv7MAz3iY5WoGROp0nuVkAWBhzaXPIEsLRPFy6zFZ+OCID8XbuQcAxkNRK5Ix03oAoIwNGkwnVnHaRXqRS4nUNHww6Y1sZZ0HUYrreiAWwENIFhAYcclK/VSiLDXUDnsAKOk9edUc4HRhkxWcrjasjRVQ7d1mAWC5NAFWTDs+f1qmM684iPHY4SKfMd4NqPPmMveHQGe9muz8ia7OpkksIkaXdD7k+fTOdujGmFGZ3GOIN3OJo2FNyfLAeYvedt1EdyV8ro2pl0VZW4dAjB5XugNgMLSDRuxd+xLApDZGmULK0yd7opC7zfMuo55XxcNiFLy0MVPRj5iuggQz3WInZuPkJCijYiDZlaVFthLT9OoC+h+uuKPUf6y4HyvuDIjmSImqwNt4NwM8Fda4Wk8qugkBoNmk0ULhWg8lNdsGRg9/Zes2S3Tqn7iwY61GSu3T0HkLfQGbpVKp2qukMUaQwsjuJ+3lYXB08Al2qQy8eKINkDbqb7Kz4dStyHmy7Qx4n21v1UoenijpJN7ZkR4AlhJebYQACCRCPnTNXQDYWoL2aTYlxJQtoD7biQQAdvfx7lvufwDgx9ul+sNuvz/dyS//by/h8eh0gR9u/wA=);lineShape=1;" vertex="1" parent="1">
                    <mxGeometry x="133.07680100973994" y="88.6144908242328" width="9.312201704218637" height="21.99671735455354" as="geometry"/>
                </mxCell>
                <mxCell id="6" value="" style="shape=stencil(lVnbUlsxDPyavGpsS749U/ofzBBKppQwQG9/X3kyPhzL52zKWwhaX6SVtHIOfPP2ePdyPAT39v56/n78fbp/fzzwl0MIp+fH4+vpXT8d+PbANw/n1+O31/PP5/vL3y93zbJ9+nH+1Vb4c8E5cr6Bgvt7+aJmCpdvvl7sn07Pg71Po70nEWQv4/olkTCyz2W09/2Em/aewmifIzmwvqc6nicVErdvHyjxaO8pAXsmGc8ThQo4j1B0g70UcmXfPlIa1xffV9i0T1RlsGddAcSrEI/+YY048H+lWgf7diNwfj8FwFfyCCDkwwhgKhEAEsWRooUKYlClMG6gNwDrKyXcSAmNAPCoLldHe805xLhMJRn7kAHjnKVooIoYysTZ+CcChiph6ki55mG0wbLecqBEDEIsznqIM0kCAL2CCZmSCPhIoi0ryVGsAFDsDlkrDYhydNZLxREDGkWmPFXGDNwa9d9xBNR+q+3Ud5aoCkBxSNxL2wKIkBop9ysuXiqUwj5AncgmDpUExEGreRq9FGvvKNuASsUUyNpL2nbBE+slXmraNkDz05TUQBl4STskm3zQDAFsrWLvoGUfNVnt2YYamnGoq9Vqawz77ug9QA0WUNCRFJCslwLy0tRJmlvBDt4tdXRBcPf0/27B/Vq7gLFUspCApG4AtoCCQj3RVcutx34twQKu+DWnaQd8aVOYGEsYBaTJSwwyqAGijQNq6ZuAABpEA0zsS6D0NcDEPiRLmpdMpDUhcMrlagGoBbVIxwmAuVSdBaAMaoBoL43EZwMUC4ggDts56pE+30TkK0lqDiV9KNgFiAVkTL9iQqdDxpWsnlR3uJJzcxm4Qr/PAXKnwkrYwzuIFeqq9T0iuLe6slV8cGltpGYHVp2IZhPpo8jS2xmmUJ4IHkMP5a7cGCOdQmfXnqCRsdBkhimkkskOxAEKyybKJhWHIt1k3xjpqkdCSjT1/FoBkNyI05GqjijArSqOjdwoDNWDym8/xiELHFtlmWqXwHGP/d4I4Ue2KjXQVKNDiqnf+k0B9OblYWGVQBAQJ9mnoUQAlTvjDj5A8dBGxRGQYPmeR1Hs1DbqmoYCu24bpU0Q4ONTG9Xt6OoB73RQNURVB6HXJy99/wWAJ1Fdz3QrvVMGZdW7XkRXwwBqiKWn4qodIqWeyZlehct2tCEWrFjFqsOodR94iG1xibmL6p0HNyNiksAHt2Aj1mZMNDbYgTIvbWjH3pupm7ug3nnALKa+FyguXH8uW2ppgHJnelCt5cqDKldrj+7rejQX+wqHKmcfSj7GgR1782D7oa727E0KO/x+5np3XG2AWrjr6bc+ELywm9ZHstz15ruyD/D8zji0XCGcqUBqHyDhrH2Gzxef/4Xgmr1++Pg54uH09HT5NWP9f/vzhX51+emDb/8B);lineShape=1;" vertex="1" parent="1">
                    <mxGeometry x="185.40391386844146" y="151.87122348091725" width="282.2633698681908" height="27.223404090682607" as="geometry"/>
                </mxCell>
                <mxCell id="7" value="" style="shape=stencil(lVbLctswDPwaXTEA3zin6X9kJk6tqWtnHKePvy9UVbYI1dvJjaaxIoHdBTjEh7f90+tuCPx2OZ++7n6Mz5f9ED8NIYzH/e48Xmw1xMchPryczrsv59P78Xn+/fo0RU6rb6fv0xd+zrgYqOQJFfjX3x3K+mfj8xx/GI+r+CQkrYuXTBIBQElTBwiVCjghV6ra36hQC/cBJZNyB0iVAgDUREE6gJ3ZwJVaII4doDQK9T5ALekeoImaQEDtadBCkQHAbtzzYDsVARLl0AMatQwATNxXyS5ZAKBZij3TwvYNcKeqlKM/ooG6GnNOrQZARFReirLKGgGMWBFPhCJAJemz1kwZJF2uWltpg5FcmYIDBOggqxI7bQiVBACmhNIDmLRBqiV7QEUOUorVX4nBCRpJ1QNQFzD5ey2FpfPcs1xhz0MEJ6zUvKK6Ic81KhuTBuS57HuffQKJaSJ2Y9IE2nErm6wVlqnJ4pc1AFmukKgHZKRv2bSyBuVqHm3sy5rQhKibHApsTB8GZCHtu6u5ltFYNK31Dso2AgAgZl8lm6wMtGRjVntpRCsrIC5smA6mpYIMsVT92vArNLXF97xlKiDljd0S1BFT7ptYpARGrs109y6hCO6efAMTSsgFy9lLOC8D/l4ptbp41Cgk+Y6NJ600P5sZzpxwnTC3+IiKuTE9w8eFKUucdJa+9G/1y9Kab2xl0CI++qz9f7wtbm/ol/FwmJ/g6//9m9u25vd6fPwN);lineShape=1;" vertex="1" parent="1">
                    <mxGeometry x="241.28239957249218" y="142.28593392381936" width="4.341558600793746" height="15.49989716043558" as="geometry"/>
                </mxCell>
                <mxCell id="8" value="" style="shape=stencil(rZbdbtswDIWfxreEJEqidN1271Gg6WIsS4o068/bj4ahNJTjkw0okAvH5ieJ5BHJge9et48vmyG419Px8GvzPj6dtgPfDyGM++3mOJ70aeCHge+eD8fNz+Phz/5p/v/yOFlOT78Pb9MKHzMnpMT0c5/zC0cyv/gxm+/G/YV5SFSisQ+eUlwHIlNiA3AkD4DsSaoBopDL60CNVLMBUibnAJApWx+SUAJO10LeBkkP6QsAKgXrdNY9PQSKGEC4LbEGVAsURwzCqkDyFjinfs3plAxQuYXhOiAtJmdAKCYApMUOlQQ5zVTCAkA7BPJ1cSSUOLfYgWGmiyYuLcKKAbZH0sRFEFYFog2rSoORvB15m+lJfAIA39cAlTcUXyBxiwuE8hCJrQ+3r6irPSCoCAjlrgjckEah2kUptrKwdoHERkkcVRAl71zz8UxIu7X/uEVJOEzqRCdXT4zqjDQlnIGMq0DuxTTVNgREitbpizh8E5EdBUuU0o55vQl5ql0msJwC94UjJ9giFgLXppWBPZOzeYip9cnrYurVGgMF4LFK056HhQpYX5tH16VDu1Ar9p20dZBAKVvaawcFV0HPY8uqx/H3/fpeVwDrazztCKAFB6bLd8eHjSq2iv41VGXQE1LfdLD8/3Nku2muD1/T4fO4283D5eX3fprUV/Mkyg9/AQ==);lineShape=1;" vertex="1" parent="1">
                    <mxGeometry x="236.35851881770213" y="139.8540706874138" width="11.061091524535527" height="2.672562759621087" as="geometry"/>
                </mxCell>
                <mxCell id="9" value="" style="shape=stencil(lVbLUiMxDPyauapky5blM8v+B1UEMrXZhAphgb9HU4OTyJnRFrd5dNuSuiV7oLvX7cPLZoj4ejoe/mzex8fTdqBfQ4zjfrs5jid9Guh+oLunw3HzfDy87R/n95eHCTk9/T38m1b4mHkMzBMp4uf8IWcI85ffM3437q/wJFAsgTLktE6Q2n43AgLLOr5GiNThkRx8AskGHyB76xcINh5N2MMLiE04IKTsECqITSAwiFMhJVQbUSTg4hJCtRogRG+HAmx3UNHEyyFDEkvQIKOrWg2GkCKgR9CIoyUEqI7OUlpNrkJix6mivsx90p5wkgDtDrFC8axNQLZKKlzwciDInZcYKLghZau0ylAdvC5nN0jNjMt4Abbrh5bSsmr6+6Y50W3O798XvBdPZUh2fYLiNydZyaSJvtY5bOMJCdgJKCD2GUwlciTQLbJNQWPyTKE5xK45k09giN0IPg/lZYIW0aqsveaWiUDwJwRt9mo7oZyVXK5rgGjnhdYtejkA9lPYtx73A0k3SM5A0kaxTtKh6Z1r1A8L9XpyfBGAu3jQrRC2U+zs7Ny8u4JHazvRCeu0zo2vS2ouWcEn6yHWejr1CZBsfTi1xljERxCbL2Pr7RW9uiMtF/cc/+lF5/94fbjcqp7G3W6+lF3/729h+mm+wdH9Fw==);lineShape=1;" vertex="1" parent="1">
                    <mxGeometry x="239.82463375957025" y="158.19919184809203" width="7.560807603483795" height="2.9799442926025677" as="geometry"/>
                </mxCell>
                <mxCell id="10" value="" style="shape=stencil(7VjLbhsxDPwaXwlJlCjpnKb/ESBOYzSNA8d9/X25dbVZcu0xciyQm7Ph7IrkcEhxwzevj3cv200Kr8fD/uv25+7++LjhT5uUds+P28PuqL82fLvhm4f9YfvlsP/+fH/6++Vuspx+fdv/mN7w64RLlYJMqBR+n540qvHvg88n+6fd89K+UKvGPoXxhvMApsYGwIk6AiRqzQByoF4hIDjAFR8iSTSAUkkKBLADNGoJAALVYAGdWr8MiH28bwAkUAsAMLs4AyIVBKiUiwd04HQUitYHSRSB0zFTzR4Q0JGYsvgjCQIk4lWUegYATVz3AMTWqImzbNXEBeR0ILbkUy41/AW2eShCggBxvG+mdyZBXGKq1mlWQIOZFpvplCkwZqv9guYeZVrfF10BUQUlzZGyjWqgDOxz9CoW4HlK8A5kSoBHyhq2EdI0NhAh6cO/GdCHhpwF1OaLR4U4A+I1oW6PxJUKAHT2EpNnLT8PaFRcLczSfIHac9SX5YY+seo+gouhdcr2C1XLA6jYFFdbbrXAYhANiqVq7RRBqjUoxR6p6RNE7j7yNANUalH7qV6UNAwVpFp8y+0qnOBEjYJ1WbkSoX2zMe1aPiBrfRTXbF8GtS7YR/d+9QiUpxLVqoVSF6l89XrXO7QX3/7VvoLzZx+fRWWcpwSx+A8gVqdVwjTEoCVol0w+QAyKIFByBKqUgHqt6l4T3KF9WhFIAKHDmBgXBM1ohvSyogVQgD0PqV3Yo66fh3ezfYTjnYzyW7w/gvjP4+jCHg0VzQ+0k9gj3aXo4lPGsHepgB0fhDLIb/OtRvkj4Dx1DPgLflZYkK67Kv8LEIjiZy61R3cQXglch7Nyosyr8wD+vNteR2urcG0ehc87oG3UfkEboYAI5e67WM2wZHS2d8N7DXBg0ff5C4jAoa6xZ6nMOnlpOPC3LoFlOfVd25hKgMKuo0CxxMsJA+JwcTGLw0kzjcKa50CVUuBDYUqWGhHffnXqi7Y49cKQ0LyyUkcdfiM4UuperiPO9LSE6Cunkb5n39D4ygjF/kKhYYAV/bEj+Af42BH8HzsCm+lcr+0IgiugDkdsTZy7eHGCV7tYfMUpfzM6UvEX2gZnkij+liA4z7KqN5yEOkaKtx1BR0uR5m8VqvTo/H21GIWXOhUY1w6ZCtpyru6lPK5JlyTSr41gPKdw+PgUJJDF71zKKLzz9kLF1eWg4CX7bu0rvGS+e/N91V5/vK3ZH3ZPT6ct/fL/fi2vj04rfb79Aw==);lineShape=1;" vertex="1" parent="1">
                    <mxGeometry x="259.44839373691934" y="127.13899940410715" width="14.204156342912711" height="16.190367516465358" as="geometry"/>
                </mxCell>
                <mxCell id="11" value="" style="shape=stencil(lVfLbttADPwaXQku931O0/8IEKcW6tqB47bJ35eqsKq5kgbNTV7NePkakhr8w9vx6fUwCL/drpfvh9/j8+04+C+DyHg+Hq7jTZ8G/zj4h5fL9fDtevl5fp5/vz5NyOnpx+XX9A/vM895SjKxhD/mkxCp1r8nX2fCaTzfESRSSoYQC4nfJ/hE1RtCyu3OTULQ184QcqAEboiZYrCEQhkQslC1TudMHPYJhYmr9cFRwoRsCSERR0AQStkQCoUE8J6ivSCSBy4XfW2DKpQdwGsSosEzlbyPr0y+dHhmgPck3OEF4SMVmzJHASSgZqq2TJeAbeMrBRufRAHE0/HiXyPUJoy9C5INkNMqBBVRtQA6gioTuZwoWqG5AmuiBuIuppUK8sE1pS9FtKR9u4rUh7i6AZdplzb1QZAO1AffR6lgoZXY56EgKQtFa1JtB3vKdDZvCSsz9ErTSkXKTGslwBzUPgdMDilZSHKHZ2CPVlGtHb4ifCZv7ddOBOxX4XRVGimA8aH4aoVZYL4UX6z9zuFW92lCIbYR1RGHmsuk5G4CMpyAU46tSSqkBEyaBqQtUr1TACEFKl03Ytzho1vpJjdlbC8KlbwNk/YbpBzRud9l2hODVGtrcPYG3QQy8EH6TCedggDv+g4ctXiBy9yHSFcZBh5z21IWfKAMsraaUVFg4XGbqQteewVopkt+lsIucMuR1bKJqy6QWHtCaOLerlJy3OMZ9IrSsrPgdR0GW4LjlZJ9WyW3Ca7N+DuLUMV9eh//D4I+/Fv/X8bTaf56uH/ffy7o0fyp4R//AA==);lineShape=1;" vertex="1" parent="1">
                    <mxGeometry x="273.1947250537893" y="124.04871906034259" width="9.754417901713964" height="8.336610910196555" as="geometry"/>
                </mxCell>
                <mxCell id="12" value="" style="shape=stencil(lVfLctswDPwaXTEg+ALPafofmYlTe+raGcfp4+8L16VrQtJmepNlrEjsLghwig9v26fXzST8dj4dv25+7J7P2yl+mkR2h+3mtDvb0xQfp/jwcjxtvpyO74fn6+/Xp0vk5enb8fvlCz+vuNIo8wUl/OvvG2rtz4vP1/j97nAXn+3vMMSHSlHWASlSzgNAGqW6DoiZOA2AWCkDgGTSOgBSIQGAoCRlAORECpIOQi2OJEXiAACBwrgl41kjABiJOgBqoQgAJpPICFCqCmg11scVVCgUoLTpMOaguUu5CGiZ2qh0EypgS810HWltkQJaQUnFAxoCNCpjDi1Bewdm4rEeWulari1RR14trQh4NQC7JJRSgjTpWHL2CQFJtJv97wDIfUZKHgF3PCwjhFT9Esh+LXiDGyCgJNgb3GiKYEtqJ1nyQggGxOalRkkbQJ03EuaVqc78quCwNFo5ewAjM8WZwa3mkJnyTAcDIKUrcfQAWHPm5llVF1ykKXlaC2KpzQ6aTBXXqGtapnTDgOhyUAqIJWspbkutt7G1Gp0XdUH1kCkkD0BHmbHudWiwyy0CGkg6y+ysjL2zrrV2vwL3GlzucuwrTiukVReaXAWNmrsN7toug2Ns1h2KCQ/2c+tnt0nDjkmkQW8dt/jQy29tbkjjCZMCdLbNDXn0XcQ91zQLo2Y2b6FSSOpztvEJiWyUuOkqUAbxhbvvezz3AXA5Xnw7NNMBzWy2K/77DBgq2Q97uHeWQiW6eNSnSvUmZXjE26gZxPGJxoXKfiCR/oG1+OIs1CfFtXgdTZ2I8X6qK5qP9iOjXjaxgZr/3yvPx/H28O9+9bLb76/Xs/v//X3MXl3vcvHxNw==);lineShape=1;" vertex="1" parent="1">
                    <mxGeometry x="292.86736401919427" y="115.77655642694833" width="11.794330861407047" height="16.870426274311512" as="geometry"/>
                </mxCell>
                <mxCell id="13" value="" style="shape=stencil(lVdJcttADHwNr6jZMMvZcf7hKssRK4rkkuUsvw8YZmgBFFvl22iEJrbGMkN8eNs/ve6G4N4u59P33a/x+bIf4pchhPG4353Hi5yG+DjEh5fTefftfHo/Ps+/X58myen04/Rz+sLvGceZWppQwf2ZbypV9+/i6yx/GI9X8ilSYiUfHJWyDYiOYlSAmCgBDSFS0RaJTt+2AV4s1ho4UAQafKacFSB7igwAhbhqQCMfgA+NilOAIkbmbYCkwWlATRRAWFsg1k7XShlEqTGFpgGt39wGFMpeAZqjBJxu8j2duOapobA6Z71uS/K3VNSgAdxTcxtQqRgnCgUEyJ3+C0DiigBLnhZAo4zC5Clpk67icBMhmWVnVRSQuspU2QKghlXNSZgKcKJKhemKkMA5EKYqVNB8nQIHKkI0JAOQG8AN8cFyw/WbrSg1nTmpCEYmCRNMr8TNUlLNbAGQG8lyQ0xyEdK1rQANVXXtzLkq0v86N0vOcEnaMTJJDDDUSD3QWwC/4hLsAtKOTVFXyCVpEn5VoxEB1vRufU7epkazY3ECIPJ9FsDOslW8yiAPMdgpd6eAZCxWDagFNnzuMVyGnDgFoipdTlNPpmgB1FtNB269nm573PeKZXG4U57E2p5YoT2yBgTt8Mec31wDNI08w9pJ3q4yMuZB6chmZEaudByQscQ2pA56nAq5YOQD2g6bLTQ82Vj2rmTkUXw4UmxGnkG3Y1l6zKztCrfWMLO3BSwvU1JXcSRG8tUuwwmvhdX2oUwBxafYcVAgfz67/d+Xl8PHU+NlPBzml8r1//ZpIlfzsyY+/gU=);lineShape=1;" vertex="1" parent="1">
                    <mxGeometry x="307.2755522543911" y="115.72770204239112" width="8.553316820191867" height="13.590983290793133" as="geometry"/>
                </mxCell>
                <mxCell id="14" value="" style="shape=stencil(lVfZbttADPwavRLL5V58TtP/CBCnNurageNef18KglItZU+iN1nimBxeOzvIw9v+6XU3xPB2vZy/734fnq/7Qb4MMR5O+93lcLWnQR4HeXg5X3bfLuefp+fp9+vTaDk+/Tj/Gv/hz4RrJHEExfB3ehGV6vTm62R/PJwW9kKl9vZMRe7bM8XU2XOhGu7bBwqht4/EBdk36ezrHODtcISqdvbvDm/TjVR7vokaSo8Su/gtP3wfkPIqoUYJEM5Cua+YxYgoFPYeUiIGIdVA0uc0F1Lgoar3UBkCVOeczAAtMEscVn2hlUShi+YAjRgDQvYABTFZAN6DUkasC0X2gAaaVROlvhCLPNxGRCppkwtescYkmv0fb0lTu5VXVIjWqDkALrV5cDvmg27SQNz3q2ZSMNWWpZw9ICEPQlE8AM2cfQ4rQECFK34xGSA2AGgUV4AKNrc1ghSfVkEhKanjUImxhzVAt4XUqKChNtIOoPOB99m06vzms4UzVigka424AqRNzWfrM29qb4V1uDFAjRIIaTOgNMr91qhCAuYhN3+k2JsMOCT1y9VO1gbmIQW/lyTBiZNAtXWAiDnESKmvNCeqoHBsjdB3a6GExEzx42BiIwPtwKsdwFjtmdqJjnOFcs8A7mSP76W/B0g9BxOgaNtb0p3is8JE0HtxJeEMgCbUNKvTP4I1nCWx9EpglGSoDpbE5gGolXilEkcAaiWZVfYCwGAcrHOaetINCAFeqURhWAedD8BFGdBEb72ZfGxvD/+vQS+H43G6RS2/+2uTvZquXPL4Dw==);lineShape=1;" vertex="1" parent="1">
                    <mxGeometry x="321.3671853110916" y="112.0194888791932" width="10.018387490606528" height="22.600760900233922" as="geometry"/>
                </mxCell>
                <mxCell id="15" value="" style="shape=stencil(lVnbUhwhEP2afaWAprk8G/MfqYrGrRi11Nz+Pk22wKEZzuibzvaBvnNoTnT1cvfl6ebk7cvr8+P3m9/nr693J/p08v78cHfzfH6Vv050faKr28fnm2/Pjz8fvl7+f/pSJetfPx5/1RX+XHDWeFtB3v69fCimlP8fPl/E788PG3Fn6k8bcWeNpbW8N1TU8onX4mSIlXgAqwcT3SCeTUlr8Wi8FvdxLZ6NG8WTIQdcI65Mg3w0LgB5b+IoH0y2QJ5NGENFzbn78tmEUX8P9ZHY8qiPMw7oU9Udg2UNoVTIbfs3eQvWJ9HHKXkH7CXRpyj5AuJFok/U/kHJ5rT+ZHIG8vLzqL/kH/B/iHr9YizI5pDbzz1eUm0gn0MxPG7gIrSYrQkjoIYYmCCAqABsnIcA1X5IkgI0CLFB1XANOzI6maSiVrCX2OQRIIEsKC/IxLEOJDIMjJZEorGJsodNVzS2o9GcTAA7UGx9sKeea27YB/DUu3qz3AdQ07g3xx77FYBGtyZuVi0BeQTkVlCr+ldnU/a4YUikaQRwawnLjjGqlJPxqAU4nd45t9jvA4LuGbIDSg2pB6uMjjC9mSajyThQcZw1QOJQACCGVsEdEJrf9gGllUtPvtIazy5A1itj547ciMP+Sd5Pjg7wcAdJBDtGWgrIAhtyJyobQADdu0jJj/UgfkPHbZFsVSWaW8LvA1I7njZxQMlXiiZr2bUTY8F4+gnejyx8RssWcYycfEEVVAFBAxiEugKsBiS8A7MGoH5fAeMOGz+sEGEyAhHVORLyBZ1yFTAZEQ8AXgMCtoGcBqCjfWeH3kmWgKABfOClrAGEAToOGVKyCigTAHtJJxO+Y+yka6ft7y2IbCKOgy653Ijy+2sU9e8KmJIP9r7SNN7WKDZaXU1qPWAbeNoBnaNV48noI8BUD+WggKYd0kE90ORWrNJcoojE7QDkaD+o6Y8CdC5hmlhTbUxvIXEJ5ZLw+7GAhFfCVsltvQ3bQHxGTmp1jgrbQBe/HS5AjV6v2IYbbRB6khFArk1qh9C+7DMm1jeImODVr3IyRR4czKXKXryOA3IrZ31dF6sSyCUmHYccGodacuOxL+UM+X1l36MNEsqE2LfTF4LKf4AN9QYx7WDRlYNbY9zw+4wmaEFTMuH3DLJV7llqjJCkytFcRgDqJhfwPYsaAdtUnAPpTXM99Enf6r6r7ijRQrpOU/Ixw2ZcI60ADk4DA+kTKODABTZx3CF4GIeQDI+9lVLL39XASE0FJDKI34eiveQL5Et1nKMAfARQBeRdO4hXKinO5xIOXGpdqAMCrDgJk+oazmK3Uhtpv42VLZJ3Oru5DYKXPWNMboJnbh2IjWH2kFzVOau6z0DmU+e4ykFwbu139EFHT51DqySCxKrOufVcFh08dY4elP9R+3Jet+AIm5GkC+l3A6TP5M4Cx/R9iLxJTzQ3kM5JWh5dw6axm8ONzmseLPIRtN75BcnDy/M0Ia7yQH87ZefR+m7SHz0b2Gnq7iBB7e9jG3kG6WY1U6v+x+tbLY/Ka5a38Co162Pbde+d9lr4hjf7UyIO19fx6l/emQ8WtucPPogeissfb2+vt+f7+8vT7fZ3/VYrny7vvHT9Dw==);lineShape=1;" vertex="1" parent="1">
                    <mxGeometry x="188.43808922214646" y="193.88321713693108" width="281.7319481840817" height="55.548692372090954" as="geometry"/>
                </mxCell>
                <mxCell id="16" value="" style="shape=stencil(7VjLbhsxDPwaXwm9JZ7T9D8CxKmNpnHgOH38fakaiiVqM1sDLXop4MN6l6REckgNtfE3L7u75+3GmZfT8fB5+21/f9pt/IeNc/un3fa4P8nTxt9u/M3D4bj9dDy8Pt2f/z/fVcn69OXwtVr4ftaziUSl/syP8xtHtvx68fEs/7h/6uQLRTuIW3L2fXFHJQ3ihlJ4X9yQMUo8JCiurXsgbimyEndAPGhXDdmMIpOiFjdgM56y3ryJQJ4pTvIo8pGS9taA/XhLxV1h32eK+Yr9B0dJ27fAfkiUtH0EzMAUis4uSFc0xBprHsuHcT8WxjPatvylsAyAfpRSGfPlqSD7UfsbidH+M/nRvgDWA3kmG0Z/LTFIQJoCKr0lAA+SozyuICFNoCCTb/beFDJltIKkaIyRD5SR0wLqEaQCWw9QGsXe2CQqTkCUop/SVogRLgLZMW9JMol8SC1NTSFHMg5GiUcfim1te1kh69ZVMgxrTrqVsoNgrfZGaHBuqVzujmY6OpghNuSz3pMoMFDI5IJWKMAJllRPCijVRQ7XyQdUcsU1e28lZ3CXz4KdeU/A6yz4n/cE+nwqDZ19mFDfiFTipICqOpJ1WiGDIk0TxxGFhCqCyUw+RJC57HWzZ4ZtIBd9mlQFENYS2mnZKyAwsWY7VQFUNYeFxEUQVimIMmEpAqdrmtKUB1RBbwXWZxr5UBpH6LEEwipOz+BjAA02C10AtrKgedVqjXLjmb9bo74VWK+AGjgvNRpcQWECUwEdv9bolOoM4Hq1QuVLqiAyJNzBthLuDyEQVi/8ZMTG5VhaptxJTzv1IAXYcFYrrBzVtuizfYUMiIIK6wrdkDFD9coVQlN9GPOwQpmEp6qpbYWUSVh5zMMK7ZMVsuKJmFgK1TbjCivUtc4iow8r5FjsqU5W4CBsXSuvjt2jFtBC3g0PCEdt8W42ATj9P5ajevnrY7l290+P5VM4V8Zy7e8/HcstZW0/An/jxKNsY5PvDalBNR84iIi8gqeD8JThy3klj9Av7TsVJe/RMRl17YpDaKA17XMnj6oxasblGlVYxidrvDlIMuVsME7Lo85cpksFuH9pJ0Zf06D4VDjqeHrUH3K7ZenyC/Bw7X3surw8XC5/H/aPj+e74/67viyWV+eLZn/7Ew==);lineShape=1;" vertex="1" parent="1">
                    <mxGeometry x="312.87277578542137" y="140.19451831264075" width="2.865820634727811" height="178.58318155590655" as="geometry"/>
                </mxCell>
            </root>
        </mxGraphModel>
    </diagram>
</mxfile>